<mxfile host="Electron" agent="Mozilla/5.0 (Macintosh; Intel Mac OS X 10_15_7) AppleWebKit/537.36 (KHTML, like Gecko) draw.io/24.7.5 Chrome/126.0.6478.183 Electron/31.3.0 Safari/537.36" version="24.7.5">
  <diagram name="Página-1" id="VJm3XxMMkWhEs9yBKVqX">
    <mxGraphModel dx="1066" dy="628" grid="1" gridSize="10" guides="1" tooltips="1" connect="1" arrows="1" fold="1" page="1" pageScale="1" pageWidth="827" pageHeight="1169" math="0" shadow="0">
      <root>
        <mxCell id="0" />
        <mxCell id="1" parent="0" />
        <mxCell id="TA72_QWtCFCfKZcOX6VG-3" value="Entidades:&lt;div&gt;Embarcacion&lt;/div&gt;&lt;div&gt;Crucero&lt;/div&gt;&lt;div&gt;Puerto&lt;/div&gt;&lt;div&gt;Pasajero&lt;/div&gt;&lt;div&gt;Habitacion&lt;/div&gt;&lt;div&gt;Categoria&lt;/div&gt;&lt;div&gt;Reserva&lt;/div&gt;&lt;div&gt;Agente&lt;/div&gt;" style="text;html=1;align=center;verticalAlign=middle;resizable=0;points=[];autosize=1;strokeColor=none;fillColor=none;" vertex="1" parent="1">
          <mxGeometry x="60" y="110" width="90" height="140" as="geometry" />
        </mxCell>
        <mxCell id="TA72_QWtCFCfKZcOX6VG-34" style="edgeStyle=orthogonalEdgeStyle;rounded=0;orthogonalLoop=1;jettySize=auto;html=1;exitX=0.5;exitY=1;exitDx=0;exitDy=0;entryX=0.5;entryY=0;entryDx=0;entryDy=0;endArrow=none;endFill=0;" edge="1" parent="1" source="TA72_QWtCFCfKZcOX6VG-4" target="TA72_QWtCFCfKZcOX6VG-17">
          <mxGeometry relative="1" as="geometry" />
        </mxCell>
        <mxCell id="TA72_QWtCFCfKZcOX6VG-40" style="edgeStyle=orthogonalEdgeStyle;rounded=0;orthogonalLoop=1;jettySize=auto;html=1;exitX=1;exitY=0.5;exitDx=0;exitDy=0;entryX=0;entryY=0.5;entryDx=0;entryDy=0;endArrow=none;endFill=0;" edge="1" parent="1" source="TA72_QWtCFCfKZcOX6VG-4" target="TA72_QWtCFCfKZcOX6VG-39">
          <mxGeometry relative="1" as="geometry" />
        </mxCell>
        <mxCell id="TA72_QWtCFCfKZcOX6VG-4" value="EMBARCACIÓN" style="whiteSpace=wrap;html=1;align=center;" vertex="1" parent="1">
          <mxGeometry x="265" y="160" width="130" height="40" as="geometry" />
        </mxCell>
        <mxCell id="TA72_QWtCFCfKZcOX6VG-49" style="edgeStyle=orthogonalEdgeStyle;rounded=0;orthogonalLoop=1;jettySize=auto;html=1;exitX=0.5;exitY=1;exitDx=0;exitDy=0;entryX=0.5;entryY=0;entryDx=0;entryDy=0;endArrow=none;endFill=0;" edge="1" parent="1" source="TA72_QWtCFCfKZcOX6VG-5" target="TA72_QWtCFCfKZcOX6VG-48">
          <mxGeometry relative="1" as="geometry" />
        </mxCell>
        <mxCell id="TA72_QWtCFCfKZcOX6VG-61" style="edgeStyle=orthogonalEdgeStyle;rounded=0;orthogonalLoop=1;jettySize=auto;html=1;exitX=1;exitY=0.5;exitDx=0;exitDy=0;endArrow=none;endFill=0;" edge="1" parent="1" source="TA72_QWtCFCfKZcOX6VG-5" target="TA72_QWtCFCfKZcOX6VG-60">
          <mxGeometry relative="1" as="geometry" />
        </mxCell>
        <mxCell id="TA72_QWtCFCfKZcOX6VG-5" value="CRUCERO" style="whiteSpace=wrap;html=1;align=center;" vertex="1" parent="1">
          <mxGeometry x="700" y="160" width="130" height="40" as="geometry" />
        </mxCell>
        <mxCell id="TA72_QWtCFCfKZcOX6VG-6" value="PUERTO" style="whiteSpace=wrap;html=1;align=center;" vertex="1" parent="1">
          <mxGeometry x="720" y="440" width="90" height="40" as="geometry" />
        </mxCell>
        <mxCell id="TA72_QWtCFCfKZcOX6VG-7" value="PASAJERO" style="whiteSpace=wrap;html=1;align=center;" vertex="1" parent="1">
          <mxGeometry x="1330" y="160" width="90" height="40" as="geometry" />
        </mxCell>
        <mxCell id="TA72_QWtCFCfKZcOX6VG-24" style="edgeStyle=orthogonalEdgeStyle;rounded=0;orthogonalLoop=1;jettySize=auto;html=1;exitX=0.5;exitY=1;exitDx=0;exitDy=0;entryX=0.5;entryY=0;entryDx=0;entryDy=0;endArrow=none;endFill=0;" edge="1" parent="1" source="TA72_QWtCFCfKZcOX6VG-9" target="TA72_QWtCFCfKZcOX6VG-20">
          <mxGeometry relative="1" as="geometry" />
        </mxCell>
        <mxCell id="TA72_QWtCFCfKZcOX6VG-110" style="edgeStyle=orthogonalEdgeStyle;rounded=0;orthogonalLoop=1;jettySize=auto;html=1;exitX=1;exitY=0.5;exitDx=0;exitDy=0;endArrow=none;endFill=0;" edge="1" parent="1" source="TA72_QWtCFCfKZcOX6VG-9">
          <mxGeometry relative="1" as="geometry">
            <mxPoint x="530" y="400" as="targetPoint" />
          </mxGeometry>
        </mxCell>
        <mxCell id="TA72_QWtCFCfKZcOX6VG-9" value="HABITACION" style="shape=ext;margin=3;double=1;whiteSpace=wrap;html=1;align=center;" vertex="1" parent="1">
          <mxGeometry x="270" y="380" width="120" height="40" as="geometry" />
        </mxCell>
        <mxCell id="TA72_QWtCFCfKZcOX6VG-10" value="CATEGORIA" style="whiteSpace=wrap;html=1;align=center;" vertex="1" parent="1">
          <mxGeometry x="275" y="610" width="110" height="40" as="geometry" />
        </mxCell>
        <mxCell id="TA72_QWtCFCfKZcOX6VG-77" style="edgeStyle=orthogonalEdgeStyle;rounded=0;orthogonalLoop=1;jettySize=auto;html=1;exitX=1;exitY=0.5;exitDx=0;exitDy=0;entryX=0;entryY=0.5;entryDx=0;entryDy=0;endArrow=none;endFill=0;" edge="1" parent="1" source="TA72_QWtCFCfKZcOX6VG-11" target="TA72_QWtCFCfKZcOX6VG-76">
          <mxGeometry relative="1" as="geometry" />
        </mxCell>
        <mxCell id="TA72_QWtCFCfKZcOX6VG-80" style="edgeStyle=orthogonalEdgeStyle;rounded=0;orthogonalLoop=1;jettySize=auto;html=1;exitX=0.5;exitY=1;exitDx=0;exitDy=0;entryX=0.5;entryY=0;entryDx=0;entryDy=0;endArrow=none;endFill=0;" edge="1" parent="1" source="TA72_QWtCFCfKZcOX6VG-11" target="TA72_QWtCFCfKZcOX6VG-79">
          <mxGeometry relative="1" as="geometry" />
        </mxCell>
        <mxCell id="TA72_QWtCFCfKZcOX6VG-11" value="RESERVA" style="whiteSpace=wrap;html=1;align=center;" vertex="1" parent="1">
          <mxGeometry x="1050" y="160" width="100" height="40" as="geometry" />
        </mxCell>
        <mxCell id="TA72_QWtCFCfKZcOX6VG-12" value="AGENTE" style="whiteSpace=wrap;html=1;align=center;" vertex="1" parent="1">
          <mxGeometry x="1050" y="350" width="100" height="40" as="geometry" />
        </mxCell>
        <mxCell id="TA72_QWtCFCfKZcOX6VG-13" value="matricula" style="ellipse;whiteSpace=wrap;html=1;align=center;fontStyle=4;" vertex="1" parent="1">
          <mxGeometry x="140" y="50" width="100" height="40" as="geometry" />
        </mxCell>
        <mxCell id="TA72_QWtCFCfKZcOX6VG-14" value="nombre" style="ellipse;whiteSpace=wrap;html=1;align=center;" vertex="1" parent="1">
          <mxGeometry x="260" y="20" width="100" height="40" as="geometry" />
        </mxCell>
        <mxCell id="TA72_QWtCFCfKZcOX6VG-15" value="cantPasajeros" style="ellipse;whiteSpace=wrap;html=1;align=center;" vertex="1" parent="1">
          <mxGeometry x="377.5" y="20" width="100" height="40" as="geometry" />
        </mxCell>
        <mxCell id="TA72_QWtCFCfKZcOX6VG-16" value="antigüedad" style="ellipse;whiteSpace=wrap;html=1;align=center;" vertex="1" parent="1">
          <mxGeometry x="440" y="70" width="100" height="40" as="geometry" />
        </mxCell>
        <mxCell id="TA72_QWtCFCfKZcOX6VG-33" style="edgeStyle=orthogonalEdgeStyle;rounded=0;orthogonalLoop=1;jettySize=auto;html=1;exitX=0.5;exitY=1;exitDx=0;exitDy=0;endArrow=none;endFill=0;shape=link;" edge="1" parent="1" source="TA72_QWtCFCfKZcOX6VG-17" target="TA72_QWtCFCfKZcOX6VG-9">
          <mxGeometry relative="1" as="geometry" />
        </mxCell>
        <mxCell id="TA72_QWtCFCfKZcOX6VG-17" value="Posee" style="shape=rhombus;double=1;perimeter=rhombusPerimeter;whiteSpace=wrap;html=1;align=center;" vertex="1" parent="1">
          <mxGeometry x="282.5" y="260" width="95" height="50" as="geometry" />
        </mxCell>
        <mxCell id="TA72_QWtCFCfKZcOX6VG-18" value="&lt;span style=&quot;border-bottom: 1px dotted&quot;&gt;nro&lt;/span&gt;" style="ellipse;whiteSpace=wrap;html=1;align=center;" vertex="1" parent="1">
          <mxGeometry x="130" y="330" width="80" height="40" as="geometry" />
        </mxCell>
        <mxCell id="TA72_QWtCFCfKZcOX6VG-19" value="capacidad" style="ellipse;whiteSpace=wrap;html=1;align=center;" vertex="1" parent="1">
          <mxGeometry x="120" y="400" width="100" height="40" as="geometry" />
        </mxCell>
        <mxCell id="TA72_QWtCFCfKZcOX6VG-25" style="edgeStyle=orthogonalEdgeStyle;rounded=0;orthogonalLoop=1;jettySize=auto;html=1;exitX=0.5;exitY=1;exitDx=0;exitDy=0;entryX=0.5;entryY=0;entryDx=0;entryDy=0;endArrow=none;endFill=0;" edge="1" parent="1" source="TA72_QWtCFCfKZcOX6VG-20" target="TA72_QWtCFCfKZcOX6VG-10">
          <mxGeometry relative="1" as="geometry" />
        </mxCell>
        <mxCell id="TA72_QWtCFCfKZcOX6VG-20" value="se encuentra en" style="shape=rhombus;perimeter=rhombusPerimeter;whiteSpace=wrap;html=1;align=center;" vertex="1" parent="1">
          <mxGeometry x="290" y="500" width="80" height="40" as="geometry" />
        </mxCell>
        <mxCell id="TA72_QWtCFCfKZcOX6VG-21" value="precio" style="ellipse;whiteSpace=wrap;html=1;align=center;" vertex="1" parent="1">
          <mxGeometry x="130" y="510" width="80" height="40" as="geometry" />
        </mxCell>
        <mxCell id="TA72_QWtCFCfKZcOX6VG-22" value="id" style="ellipse;whiteSpace=wrap;html=1;align=center;fontStyle=4;" vertex="1" parent="1">
          <mxGeometry x="240" y="700" width="72" height="40" as="geometry" />
        </mxCell>
        <mxCell id="TA72_QWtCFCfKZcOX6VG-23" value="descripcion" style="ellipse;whiteSpace=wrap;html=1;align=center;" vertex="1" parent="1">
          <mxGeometry x="340" y="700" width="100" height="40" as="geometry" />
        </mxCell>
        <mxCell id="TA72_QWtCFCfKZcOX6VG-28" value="" style="endArrow=none;html=1;rounded=0;exitX=0.5;exitY=0;exitDx=0;exitDy=0;entryX=0.373;entryY=1;entryDx=0;entryDy=0;entryPerimeter=0;" edge="1" parent="1" source="TA72_QWtCFCfKZcOX6VG-22" target="TA72_QWtCFCfKZcOX6VG-10">
          <mxGeometry width="50" height="50" relative="1" as="geometry">
            <mxPoint x="290" y="700" as="sourcePoint" />
            <mxPoint x="340" y="650" as="targetPoint" />
          </mxGeometry>
        </mxCell>
        <mxCell id="TA72_QWtCFCfKZcOX6VG-29" value="" style="endArrow=none;html=1;rounded=0;exitX=0.35;exitY=0.05;exitDx=0;exitDy=0;entryX=0.573;entryY=1.05;entryDx=0;entryDy=0;entryPerimeter=0;exitPerimeter=0;" edge="1" parent="1" source="TA72_QWtCFCfKZcOX6VG-23" target="TA72_QWtCFCfKZcOX6VG-10">
          <mxGeometry width="50" height="50" relative="1" as="geometry">
            <mxPoint x="360" y="710" as="sourcePoint" />
            <mxPoint x="400" y="660" as="targetPoint" />
          </mxGeometry>
        </mxCell>
        <mxCell id="TA72_QWtCFCfKZcOX6VG-30" value="" style="endArrow=none;html=1;rounded=0;entryX=0;entryY=0.5;entryDx=0;entryDy=0;" edge="1" parent="1" target="TA72_QWtCFCfKZcOX6VG-20">
          <mxGeometry width="50" height="50" relative="1" as="geometry">
            <mxPoint x="210" y="530" as="sourcePoint" />
            <mxPoint x="250" y="480" as="targetPoint" />
          </mxGeometry>
        </mxCell>
        <mxCell id="TA72_QWtCFCfKZcOX6VG-31" value="" style="endArrow=none;html=1;rounded=0;exitX=0.5;exitY=0;exitDx=0;exitDy=0;entryX=0;entryY=0.75;entryDx=0;entryDy=0;" edge="1" parent="1" target="TA72_QWtCFCfKZcOX6VG-9">
          <mxGeometry width="50" height="50" relative="1" as="geometry">
            <mxPoint x="220" y="420" as="sourcePoint" />
            <mxPoint x="270" y="360" as="targetPoint" />
          </mxGeometry>
        </mxCell>
        <mxCell id="TA72_QWtCFCfKZcOX6VG-32" value="" style="endArrow=none;html=1;rounded=0;exitX=0.5;exitY=0;exitDx=0;exitDy=0;entryX=0;entryY=0.25;entryDx=0;entryDy=0;" edge="1" parent="1" target="TA72_QWtCFCfKZcOX6VG-9">
          <mxGeometry width="50" height="50" relative="1" as="geometry">
            <mxPoint x="210" y="350" as="sourcePoint" />
            <mxPoint x="270" y="350" as="targetPoint" />
          </mxGeometry>
        </mxCell>
        <mxCell id="TA72_QWtCFCfKZcOX6VG-35" value="" style="endArrow=none;html=1;rounded=0;entryX=0.05;entryY=0.7;entryDx=0;entryDy=0;entryPerimeter=0;exitX=1;exitY=0.25;exitDx=0;exitDy=0;" edge="1" parent="1" source="TA72_QWtCFCfKZcOX6VG-4" target="TA72_QWtCFCfKZcOX6VG-16">
          <mxGeometry width="50" height="50" relative="1" as="geometry">
            <mxPoint x="400" y="200" as="sourcePoint" />
            <mxPoint x="450" y="150" as="targetPoint" />
          </mxGeometry>
        </mxCell>
        <mxCell id="TA72_QWtCFCfKZcOX6VG-36" value="" style="endArrow=none;html=1;rounded=0;entryX=0;entryY=1;entryDx=0;entryDy=0;exitX=1;exitY=0.25;exitDx=0;exitDy=0;" edge="1" parent="1" target="TA72_QWtCFCfKZcOX6VG-15">
          <mxGeometry width="50" height="50" relative="1" as="geometry">
            <mxPoint x="354" y="160" as="sourcePoint" />
            <mxPoint x="414" y="128" as="targetPoint" />
          </mxGeometry>
        </mxCell>
        <mxCell id="TA72_QWtCFCfKZcOX6VG-37" value="" style="endArrow=none;html=1;rounded=0;entryX=0.5;entryY=1;entryDx=0;entryDy=0;exitX=1;exitY=0.25;exitDx=0;exitDy=0;" edge="1" parent="1" target="TA72_QWtCFCfKZcOX6VG-14">
          <mxGeometry width="50" height="50" relative="1" as="geometry">
            <mxPoint x="316.5" y="160" as="sourcePoint" />
            <mxPoint x="377.5" y="74" as="targetPoint" />
          </mxGeometry>
        </mxCell>
        <mxCell id="TA72_QWtCFCfKZcOX6VG-38" value="" style="endArrow=none;html=1;rounded=0;entryX=0.93;entryY=0.725;entryDx=0;entryDy=0;exitX=1;exitY=0.25;exitDx=0;exitDy=0;entryPerimeter=0;" edge="1" parent="1" target="TA72_QWtCFCfKZcOX6VG-13">
          <mxGeometry width="50" height="50" relative="1" as="geometry">
            <mxPoint x="265" y="180" as="sourcePoint" />
            <mxPoint x="258.5" y="80" as="targetPoint" />
          </mxGeometry>
        </mxCell>
        <mxCell id="TA72_QWtCFCfKZcOX6VG-41" style="edgeStyle=orthogonalEdgeStyle;rounded=0;orthogonalLoop=1;jettySize=auto;html=1;exitX=1;exitY=0.5;exitDx=0;exitDy=0;entryX=0;entryY=0.5;entryDx=0;entryDy=0;endArrow=none;endFill=0;" edge="1" parent="1" source="TA72_QWtCFCfKZcOX6VG-39" target="TA72_QWtCFCfKZcOX6VG-5">
          <mxGeometry relative="1" as="geometry" />
        </mxCell>
        <mxCell id="TA72_QWtCFCfKZcOX6VG-39" value="Asignada en" style="shape=rhombus;perimeter=rhombusPerimeter;whiteSpace=wrap;html=1;align=center;" vertex="1" parent="1">
          <mxGeometry x="500" y="155" width="90" height="50" as="geometry" />
        </mxCell>
        <mxCell id="TA72_QWtCFCfKZcOX6VG-42" value="codigo" style="ellipse;whiteSpace=wrap;html=1;align=center;fontStyle=4;" vertex="1" parent="1">
          <mxGeometry x="630" y="70" width="100" height="40" as="geometry" />
        </mxCell>
        <mxCell id="TA72_QWtCFCfKZcOX6VG-43" value="nombre" style="ellipse;whiteSpace=wrap;html=1;align=center;" vertex="1" parent="1">
          <mxGeometry x="715" y="30" width="100" height="40" as="geometry" />
        </mxCell>
        <mxCell id="TA72_QWtCFCfKZcOX6VG-44" value="duracion" style="ellipse;whiteSpace=wrap;html=1;align=center;" vertex="1" parent="1">
          <mxGeometry x="815" y="70" width="100" height="40" as="geometry" />
        </mxCell>
        <mxCell id="TA72_QWtCFCfKZcOX6VG-45" value="" style="endArrow=none;html=1;rounded=0;entryX=0.64;entryY=0.95;entryDx=0;entryDy=0;entryPerimeter=0;" edge="1" parent="1" source="TA72_QWtCFCfKZcOX6VG-5" target="TA72_QWtCFCfKZcOX6VG-42">
          <mxGeometry width="50" height="50" relative="1" as="geometry">
            <mxPoint x="655" y="180" as="sourcePoint" />
            <mxPoint x="705" y="108" as="targetPoint" />
          </mxGeometry>
        </mxCell>
        <mxCell id="TA72_QWtCFCfKZcOX6VG-46" value="" style="endArrow=none;html=1;rounded=0;entryX=0.5;entryY=1;entryDx=0;entryDy=0;exitX=0.5;exitY=0;exitDx=0;exitDy=0;" edge="1" parent="1" source="TA72_QWtCFCfKZcOX6VG-5" target="TA72_QWtCFCfKZcOX6VG-43">
          <mxGeometry width="50" height="50" relative="1" as="geometry">
            <mxPoint x="790.5" y="160" as="sourcePoint" />
            <mxPoint x="739.5" y="108" as="targetPoint" />
          </mxGeometry>
        </mxCell>
        <mxCell id="TA72_QWtCFCfKZcOX6VG-47" value="" style="endArrow=none;html=1;rounded=0;entryX=0.29;entryY=0.9;entryDx=0;entryDy=0;exitX=0.854;exitY=-0.1;exitDx=0;exitDy=0;exitPerimeter=0;entryPerimeter=0;" edge="1" parent="1" source="TA72_QWtCFCfKZcOX6VG-5" target="TA72_QWtCFCfKZcOX6VG-44">
          <mxGeometry width="50" height="50" relative="1" as="geometry">
            <mxPoint x="850" y="200" as="sourcePoint" />
            <mxPoint x="850" y="110" as="targetPoint" />
          </mxGeometry>
        </mxCell>
        <mxCell id="TA72_QWtCFCfKZcOX6VG-50" style="edgeStyle=orthogonalEdgeStyle;rounded=0;orthogonalLoop=1;jettySize=auto;html=1;exitX=0.5;exitY=1;exitDx=0;exitDy=0;entryX=0.5;entryY=0;entryDx=0;entryDy=0;endArrow=none;endFill=0;" edge="1" parent="1" source="TA72_QWtCFCfKZcOX6VG-48" target="TA72_QWtCFCfKZcOX6VG-6">
          <mxGeometry relative="1" as="geometry" />
        </mxCell>
        <mxCell id="TA72_QWtCFCfKZcOX6VG-48" value="Parada en" style="shape=rhombus;perimeter=rhombusPerimeter;whiteSpace=wrap;html=1;align=center;" vertex="1" parent="1">
          <mxGeometry x="717.5" y="300" width="95" height="50" as="geometry" />
        </mxCell>
        <mxCell id="TA72_QWtCFCfKZcOX6VG-52" value="cantParadas" style="ellipse;whiteSpace=wrap;html=1;align=center;" vertex="1" parent="1">
          <mxGeometry x="610" y="340" width="100" height="40" as="geometry" />
        </mxCell>
        <mxCell id="TA72_QWtCFCfKZcOX6VG-53" value="" style="endArrow=none;html=1;rounded=0;entryX=1;entryY=0.5;entryDx=0;entryDy=0;exitX=0;exitY=0.5;exitDx=0;exitDy=0;" edge="1" parent="1" source="TA72_QWtCFCfKZcOX6VG-48" target="TA72_QWtCFCfKZcOX6VG-52">
          <mxGeometry width="50" height="50" relative="1" as="geometry">
            <mxPoint x="720" y="330" as="sourcePoint" />
            <mxPoint x="669" y="278" as="targetPoint" />
          </mxGeometry>
        </mxCell>
        <mxCell id="TA72_QWtCFCfKZcOX6VG-54" value="id" style="ellipse;whiteSpace=wrap;html=1;align=center;fontStyle=4;" vertex="1" parent="1">
          <mxGeometry x="630" y="530" width="60" height="40" as="geometry" />
        </mxCell>
        <mxCell id="TA72_QWtCFCfKZcOX6VG-55" value="nombre" style="ellipse;whiteSpace=wrap;html=1;align=center;" vertex="1" parent="1">
          <mxGeometry x="700" y="590" width="100" height="40" as="geometry" />
        </mxCell>
        <mxCell id="TA72_QWtCFCfKZcOX6VG-56" value="descriocion" style="ellipse;whiteSpace=wrap;html=1;align=center;" vertex="1" parent="1">
          <mxGeometry x="810" y="550" width="100" height="40" as="geometry" />
        </mxCell>
        <mxCell id="TA72_QWtCFCfKZcOX6VG-57" value="" style="endArrow=none;html=1;rounded=0;entryX=0.967;entryY=0.3;entryDx=0;entryDy=0;exitX=0.25;exitY=1;exitDx=0;exitDy=0;entryPerimeter=0;" edge="1" parent="1" source="TA72_QWtCFCfKZcOX6VG-6" target="TA72_QWtCFCfKZcOX6VG-54">
          <mxGeometry width="50" height="50" relative="1" as="geometry">
            <mxPoint x="758" y="557.5" as="sourcePoint" />
            <mxPoint x="700" y="542.5" as="targetPoint" />
          </mxGeometry>
        </mxCell>
        <mxCell id="TA72_QWtCFCfKZcOX6VG-58" value="" style="endArrow=none;html=1;rounded=0;entryX=0.44;entryY=-0.05;entryDx=0;entryDy=0;exitX=0.389;exitY=1.05;exitDx=0;exitDy=0;entryPerimeter=0;exitPerimeter=0;" edge="1" parent="1" source="TA72_QWtCFCfKZcOX6VG-6" target="TA72_QWtCFCfKZcOX6VG-55">
          <mxGeometry width="50" height="50" relative="1" as="geometry">
            <mxPoint x="753" y="490" as="sourcePoint" />
            <mxPoint x="698" y="552" as="targetPoint" />
          </mxGeometry>
        </mxCell>
        <mxCell id="TA72_QWtCFCfKZcOX6VG-59" value="" style="endArrow=none;html=1;rounded=0;exitX=0.833;exitY=1.05;exitDx=0;exitDy=0;exitPerimeter=0;" edge="1" parent="1" source="TA72_QWtCFCfKZcOX6VG-6" target="TA72_QWtCFCfKZcOX6VG-56">
          <mxGeometry width="50" height="50" relative="1" as="geometry">
            <mxPoint x="826" y="460" as="sourcePoint" />
            <mxPoint x="815" y="566" as="targetPoint" />
          </mxGeometry>
        </mxCell>
        <mxCell id="TA72_QWtCFCfKZcOX6VG-62" style="edgeStyle=orthogonalEdgeStyle;rounded=0;orthogonalLoop=1;jettySize=auto;html=1;exitX=1;exitY=0.5;exitDx=0;exitDy=0;entryX=0;entryY=0.5;entryDx=0;entryDy=0;endArrow=none;endFill=0;" edge="1" parent="1" source="TA72_QWtCFCfKZcOX6VG-60" target="TA72_QWtCFCfKZcOX6VG-11">
          <mxGeometry relative="1" as="geometry" />
        </mxCell>
        <mxCell id="TA72_QWtCFCfKZcOX6VG-60" value="Forma parte de" style="shape=rhombus;perimeter=rhombusPerimeter;whiteSpace=wrap;html=1;align=center;" vertex="1" parent="1">
          <mxGeometry x="900" y="160" width="80" height="40" as="geometry" />
        </mxCell>
        <mxCell id="TA72_QWtCFCfKZcOX6VG-63" value="codigo" style="ellipse;whiteSpace=wrap;html=1;align=center;fontStyle=4;" vertex="1" parent="1">
          <mxGeometry x="980" y="60" width="100" height="40" as="geometry" />
        </mxCell>
        <mxCell id="TA72_QWtCFCfKZcOX6VG-64" value="precio" style="ellipse;whiteSpace=wrap;html=1;align=center;" vertex="1" parent="1">
          <mxGeometry x="1090" y="40" width="100" height="40" as="geometry" />
        </mxCell>
        <mxCell id="TA72_QWtCFCfKZcOX6VG-65" value="" style="endArrow=none;html=1;rounded=0;entryX=0.29;entryY=0.9;entryDx=0;entryDy=0;exitX=0.25;exitY=0;exitDx=0;exitDy=0;entryPerimeter=0;" edge="1" parent="1" source="TA72_QWtCFCfKZcOX6VG-11">
          <mxGeometry width="50" height="50" relative="1" as="geometry">
            <mxPoint x="1013.5" y="150" as="sourcePoint" />
            <mxPoint x="1046.5" y="100" as="targetPoint" />
          </mxGeometry>
        </mxCell>
        <mxCell id="TA72_QWtCFCfKZcOX6VG-66" value="" style="endArrow=none;html=1;rounded=0;entryX=0.4;entryY=1.025;entryDx=0;entryDy=0;exitX=0.68;exitY=-0.1;exitDx=0;exitDy=0;entryPerimeter=0;exitPerimeter=0;" edge="1" parent="1" source="TA72_QWtCFCfKZcOX6VG-11" target="TA72_QWtCFCfKZcOX6VG-64">
          <mxGeometry width="50" height="50" relative="1" as="geometry">
            <mxPoint x="1175.25" y="160" as="sourcePoint" />
            <mxPoint x="1146.75" y="100" as="targetPoint" />
          </mxGeometry>
        </mxCell>
        <mxCell id="TA72_QWtCFCfKZcOX6VG-67" value="documento" style="ellipse;whiteSpace=wrap;html=1;align=center;fontStyle=4;" vertex="1" parent="1">
          <mxGeometry x="1290" y="270" width="100" height="40" as="geometry" />
        </mxCell>
        <mxCell id="TA72_QWtCFCfKZcOX6VG-68" value="nombre" style="ellipse;whiteSpace=wrap;html=1;align=center;" vertex="1" parent="1">
          <mxGeometry x="1490" y="210" width="100" height="40" as="geometry" />
        </mxCell>
        <mxCell id="TA72_QWtCFCfKZcOX6VG-69" value="apellido" style="ellipse;whiteSpace=wrap;html=1;align=center;" vertex="1" parent="1">
          <mxGeometry x="1420" y="270" width="100" height="40" as="geometry" />
        </mxCell>
        <mxCell id="TA72_QWtCFCfKZcOX6VG-70" value="contacto" style="ellipse;shape=doubleEllipse;margin=3;whiteSpace=wrap;html=1;align=center;" vertex="1" parent="1">
          <mxGeometry x="1510" y="140" width="100" height="40" as="geometry" />
        </mxCell>
        <mxCell id="TA72_QWtCFCfKZcOX6VG-72" value="" style="endArrow=none;html=1;rounded=0;entryX=0.25;entryY=1;entryDx=0;entryDy=0;exitX=0.5;exitY=0;exitDx=0;exitDy=0;" edge="1" parent="1" source="TA72_QWtCFCfKZcOX6VG-67" target="TA72_QWtCFCfKZcOX6VG-7">
          <mxGeometry width="50" height="50" relative="1" as="geometry">
            <mxPoint x="1340" y="266" as="sourcePoint" />
            <mxPoint x="1368.75" y="210" as="targetPoint" />
          </mxGeometry>
        </mxCell>
        <mxCell id="TA72_QWtCFCfKZcOX6VG-73" value="" style="endArrow=none;html=1;rounded=0;entryX=0.75;entryY=1;entryDx=0;entryDy=0;exitX=0;exitY=0;exitDx=0;exitDy=0;" edge="1" parent="1" source="TA72_QWtCFCfKZcOX6VG-69" target="TA72_QWtCFCfKZcOX6VG-7">
          <mxGeometry width="50" height="50" relative="1" as="geometry">
            <mxPoint x="1440" y="279" as="sourcePoint" />
            <mxPoint x="1442" y="210" as="targetPoint" />
          </mxGeometry>
        </mxCell>
        <mxCell id="TA72_QWtCFCfKZcOX6VG-74" value="" style="endArrow=none;html=1;rounded=0;entryX=1;entryY=0.5;entryDx=0;entryDy=0;exitX=0.04;exitY=0.275;exitDx=0;exitDy=0;exitPerimeter=0;" edge="1" parent="1" source="TA72_QWtCFCfKZcOX6VG-68" target="TA72_QWtCFCfKZcOX6VG-7">
          <mxGeometry width="50" height="50" relative="1" as="geometry">
            <mxPoint x="1488.5" y="231" as="sourcePoint" />
            <mxPoint x="1451.5" y="155" as="targetPoint" />
          </mxGeometry>
        </mxCell>
        <mxCell id="TA72_QWtCFCfKZcOX6VG-75" value="" style="endArrow=none;html=1;rounded=0;entryX=1;entryY=0.25;entryDx=0;entryDy=0;exitX=0;exitY=0.5;exitDx=0;exitDy=0;" edge="1" parent="1" source="TA72_QWtCFCfKZcOX6VG-70" target="TA72_QWtCFCfKZcOX6VG-7">
          <mxGeometry width="50" height="50" relative="1" as="geometry">
            <mxPoint x="1510" y="160" as="sourcePoint" />
            <mxPoint x="1436" y="120" as="targetPoint" />
          </mxGeometry>
        </mxCell>
        <mxCell id="TA72_QWtCFCfKZcOX6VG-78" style="edgeStyle=orthogonalEdgeStyle;rounded=0;orthogonalLoop=1;jettySize=auto;html=1;exitX=1;exitY=0.5;exitDx=0;exitDy=0;entryX=0;entryY=0.5;entryDx=0;entryDy=0;endArrow=none;endFill=0;" edge="1" parent="1" source="TA72_QWtCFCfKZcOX6VG-76" target="TA72_QWtCFCfKZcOX6VG-7">
          <mxGeometry relative="1" as="geometry" />
        </mxCell>
        <mxCell id="TA72_QWtCFCfKZcOX6VG-76" value="Hecha por" style="shape=rhombus;perimeter=rhombusPerimeter;whiteSpace=wrap;html=1;align=center;" vertex="1" parent="1">
          <mxGeometry x="1200.5" y="160" width="80" height="40" as="geometry" />
        </mxCell>
        <mxCell id="TA72_QWtCFCfKZcOX6VG-81" style="edgeStyle=orthogonalEdgeStyle;rounded=0;orthogonalLoop=1;jettySize=auto;html=1;exitX=0.5;exitY=1;exitDx=0;exitDy=0;entryX=0.5;entryY=0;entryDx=0;entryDy=0;endArrow=none;endFill=0;" edge="1" parent="1" source="TA72_QWtCFCfKZcOX6VG-79" target="TA72_QWtCFCfKZcOX6VG-12">
          <mxGeometry relative="1" as="geometry" />
        </mxCell>
        <mxCell id="TA72_QWtCFCfKZcOX6VG-79" value="Vendida por" style="shape=rhombus;perimeter=rhombusPerimeter;whiteSpace=wrap;html=1;align=center;" vertex="1" parent="1">
          <mxGeometry x="1060" y="260" width="80" height="40" as="geometry" />
        </mxCell>
        <mxCell id="TA72_QWtCFCfKZcOX6VG-82" value="id" style="ellipse;whiteSpace=wrap;html=1;align=center;fontStyle=4;" vertex="1" parent="1">
          <mxGeometry x="970" y="440" width="70" height="40" as="geometry" />
        </mxCell>
        <mxCell id="TA72_QWtCFCfKZcOX6VG-83" value="nombre" style="ellipse;whiteSpace=wrap;html=1;align=center;" vertex="1" parent="1">
          <mxGeometry x="1040" y="500" width="100" height="40" as="geometry" />
        </mxCell>
        <mxCell id="TA72_QWtCFCfKZcOX6VG-84" value="apellido" style="ellipse;whiteSpace=wrap;html=1;align=center;" vertex="1" parent="1">
          <mxGeometry x="1150" y="470" width="100" height="40" as="geometry" />
        </mxCell>
        <mxCell id="TA72_QWtCFCfKZcOX6VG-85" value="contacto" style="ellipse;shape=doubleEllipse;margin=3;whiteSpace=wrap;html=1;align=center;" vertex="1" parent="1">
          <mxGeometry x="1200.5" y="410" width="100" height="40" as="geometry" />
        </mxCell>
        <mxCell id="TA72_QWtCFCfKZcOX6VG-86" value="comisión" style="ellipse;whiteSpace=wrap;html=1;align=center;" vertex="1" parent="1">
          <mxGeometry x="955" y="280" width="100" height="40" as="geometry" />
        </mxCell>
        <mxCell id="TA72_QWtCFCfKZcOX6VG-87" value="" style="endArrow=none;html=1;rounded=0;entryX=0.5;entryY=1;entryDx=0;entryDy=0;exitX=0.5;exitY=0;exitDx=0;exitDy=0;" edge="1" parent="1" source="TA72_QWtCFCfKZcOX6VG-83" target="TA72_QWtCFCfKZcOX6VG-12">
          <mxGeometry width="50" height="50" relative="1" as="geometry">
            <mxPoint x="1090" y="500" as="sourcePoint" />
            <mxPoint x="1103" y="430" as="targetPoint" />
          </mxGeometry>
        </mxCell>
        <mxCell id="TA72_QWtCFCfKZcOX6VG-88" value="" style="endArrow=none;html=1;rounded=0;entryX=0.75;entryY=1;entryDx=0;entryDy=0;exitX=0.08;exitY=0.175;exitDx=0;exitDy=0;exitPerimeter=0;" edge="1" parent="1" source="TA72_QWtCFCfKZcOX6VG-84" target="TA72_QWtCFCfKZcOX6VG-12">
          <mxGeometry width="50" height="50" relative="1" as="geometry">
            <mxPoint x="1150" y="490" as="sourcePoint" />
            <mxPoint x="1160" y="380" as="targetPoint" />
          </mxGeometry>
        </mxCell>
        <mxCell id="TA72_QWtCFCfKZcOX6VG-89" value="" style="endArrow=none;html=1;rounded=0;entryX=1;entryY=0.5;entryDx=0;entryDy=0;exitX=0.055;exitY=0.25;exitDx=0;exitDy=0;exitPerimeter=0;" edge="1" parent="1" source="TA72_QWtCFCfKZcOX6VG-85" target="TA72_QWtCFCfKZcOX6VG-12">
          <mxGeometry width="50" height="50" relative="1" as="geometry">
            <mxPoint x="1200.5" y="437" as="sourcePoint" />
            <mxPoint x="1167.5" y="350" as="targetPoint" />
          </mxGeometry>
        </mxCell>
        <mxCell id="TA72_QWtCFCfKZcOX6VG-90" value="" style="endArrow=none;html=1;rounded=0;entryX=0.25;entryY=1;entryDx=0;entryDy=0;exitX=0.714;exitY=0;exitDx=0;exitDy=0;exitPerimeter=0;" edge="1" parent="1" source="TA72_QWtCFCfKZcOX6VG-82" target="TA72_QWtCFCfKZcOX6VG-12">
          <mxGeometry width="50" height="50" relative="1" as="geometry">
            <mxPoint x="1026" y="425" as="sourcePoint" />
            <mxPoint x="970" y="375" as="targetPoint" />
          </mxGeometry>
        </mxCell>
        <mxCell id="TA72_QWtCFCfKZcOX6VG-91" value="" style="endArrow=none;html=1;rounded=0;entryX=0.15;entryY=0.7;entryDx=0;entryDy=0;exitX=1;exitY=0.5;exitDx=0;exitDy=0;entryPerimeter=0;" edge="1" parent="1" source="TA72_QWtCFCfKZcOX6VG-86" target="TA72_QWtCFCfKZcOX6VG-79">
          <mxGeometry width="50" height="50" relative="1" as="geometry">
            <mxPoint x="1050" y="340" as="sourcePoint" />
            <mxPoint x="994" y="290" as="targetPoint" />
          </mxGeometry>
        </mxCell>
        <mxCell id="TA72_QWtCFCfKZcOX6VG-92" value="N" style="text;html=1;align=center;verticalAlign=middle;resizable=0;points=[];autosize=1;strokeColor=none;fillColor=none;" vertex="1" parent="1">
          <mxGeometry x="675" y="148" width="30" height="30" as="geometry" />
        </mxCell>
        <mxCell id="TA72_QWtCFCfKZcOX6VG-93" value="1" style="text;html=1;align=center;verticalAlign=middle;resizable=0;points=[];autosize=1;strokeColor=none;fillColor=none;" vertex="1" parent="1">
          <mxGeometry x="395" y="155" width="30" height="30" as="geometry" />
        </mxCell>
        <mxCell id="TA72_QWtCFCfKZcOX6VG-94" value="N" style="text;html=1;align=center;verticalAlign=middle;resizable=0;points=[];autosize=1;strokeColor=none;fillColor=none;" vertex="1" parent="1">
          <mxGeometry x="330" y="350" width="30" height="30" as="geometry" />
        </mxCell>
        <mxCell id="TA72_QWtCFCfKZcOX6VG-95" value="1" style="text;html=1;align=center;verticalAlign=middle;resizable=0;points=[];autosize=1;strokeColor=none;fillColor=none;" vertex="1" parent="1">
          <mxGeometry x="325" y="200" width="30" height="30" as="geometry" />
        </mxCell>
        <mxCell id="TA72_QWtCFCfKZcOX6VG-96" value="1" style="text;html=1;align=center;verticalAlign=middle;resizable=0;points=[];autosize=1;strokeColor=none;fillColor=none;" vertex="1" parent="1">
          <mxGeometry x="330" y="580" width="30" height="30" as="geometry" />
        </mxCell>
        <mxCell id="TA72_QWtCFCfKZcOX6VG-97" value="N" style="text;html=1;align=center;verticalAlign=middle;resizable=0;points=[];autosize=1;strokeColor=none;fillColor=none;" vertex="1" parent="1">
          <mxGeometry x="330" y="420" width="30" height="30" as="geometry" />
        </mxCell>
        <mxCell id="TA72_QWtCFCfKZcOX6VG-98" value="N" style="text;html=1;align=center;verticalAlign=middle;resizable=0;points=[];autosize=1;strokeColor=none;fillColor=none;" vertex="1" parent="1">
          <mxGeometry x="765" y="410" width="30" height="30" as="geometry" />
        </mxCell>
        <mxCell id="TA72_QWtCFCfKZcOX6VG-99" value="N" style="text;html=1;align=center;verticalAlign=middle;resizable=0;points=[];autosize=1;strokeColor=none;fillColor=none;" vertex="1" parent="1">
          <mxGeometry x="765" y="198" width="30" height="30" as="geometry" />
        </mxCell>
        <mxCell id="TA72_QWtCFCfKZcOX6VG-100" value="1" style="text;html=1;align=center;verticalAlign=middle;resizable=0;points=[];autosize=1;strokeColor=none;fillColor=none;" vertex="1" parent="1">
          <mxGeometry x="827" y="155" width="30" height="30" as="geometry" />
        </mxCell>
        <mxCell id="TA72_QWtCFCfKZcOX6VG-101" value="N" style="text;html=1;align=center;verticalAlign=middle;resizable=0;points=[];autosize=1;strokeColor=none;fillColor=none;" vertex="1" parent="1">
          <mxGeometry x="1020" y="150" width="30" height="30" as="geometry" />
        </mxCell>
        <mxCell id="TA72_QWtCFCfKZcOX6VG-102" value="1" style="text;html=1;align=center;verticalAlign=middle;resizable=0;points=[];autosize=1;strokeColor=none;fillColor=none;" vertex="1" parent="1">
          <mxGeometry x="1300.5" y="150" width="30" height="30" as="geometry" />
        </mxCell>
        <mxCell id="TA72_QWtCFCfKZcOX6VG-103" value="N" style="text;html=1;align=center;verticalAlign=middle;resizable=0;points=[];autosize=1;strokeColor=none;fillColor=none;" vertex="1" parent="1">
          <mxGeometry x="1150" y="150" width="30" height="30" as="geometry" />
        </mxCell>
        <mxCell id="TA72_QWtCFCfKZcOX6VG-104" value="1" style="text;html=1;align=center;verticalAlign=middle;resizable=0;points=[];autosize=1;strokeColor=none;fillColor=none;" vertex="1" parent="1">
          <mxGeometry x="1100" y="320" width="30" height="30" as="geometry" />
        </mxCell>
        <mxCell id="TA72_QWtCFCfKZcOX6VG-105" value="N" style="text;html=1;align=center;verticalAlign=middle;resizable=0;points=[];autosize=1;strokeColor=none;fillColor=none;" vertex="1" parent="1">
          <mxGeometry x="1100" y="198" width="30" height="30" as="geometry" />
        </mxCell>
        <mxCell id="TA72_QWtCFCfKZcOX6VG-106" value="fecha" style="ellipse;whiteSpace=wrap;html=1;align=center;fontStyle=4;" vertex="1" parent="1">
          <mxGeometry x="625" y="280" width="70" height="40" as="geometry" />
        </mxCell>
        <mxCell id="TA72_QWtCFCfKZcOX6VG-107" value="" style="endArrow=none;html=1;rounded=0;exitX=0;exitY=0;exitDx=0;exitDy=0;" edge="1" parent="1" source="TA72_QWtCFCfKZcOX6VG-48">
          <mxGeometry width="50" height="50" relative="1" as="geometry">
            <mxPoint x="715" y="240" as="sourcePoint" />
            <mxPoint x="695" y="300" as="targetPoint" />
          </mxGeometry>
        </mxCell>
        <mxCell id="TA72_QWtCFCfKZcOX6VG-109" value="" style="endArrow=none;html=1;rounded=0;" edge="1" parent="1">
          <mxGeometry width="50" height="50" relative="1" as="geometry">
            <mxPoint x="528" y="730" as="sourcePoint" />
            <mxPoint x="527.5" y="400" as="targetPoint" />
          </mxGeometry>
        </mxCell>
        <mxCell id="TA72_QWtCFCfKZcOX6VG-113" value="Incluida en" style="shape=rhombus;perimeter=rhombusPerimeter;whiteSpace=wrap;html=1;align=center;" vertex="1" parent="1">
          <mxGeometry x="732.5" y="710" width="95" height="50" as="geometry" />
        </mxCell>
        <mxCell id="TA72_QWtCFCfKZcOX6VG-114" value="" style="endArrow=none;html=1;rounded=0;exitX=0;exitY=0.5;exitDx=0;exitDy=0;" edge="1" parent="1" source="TA72_QWtCFCfKZcOX6VG-113">
          <mxGeometry width="50" height="50" relative="1" as="geometry">
            <mxPoint x="660" y="730" as="sourcePoint" />
            <mxPoint x="530" y="730" as="targetPoint" />
          </mxGeometry>
        </mxCell>
        <mxCell id="TA72_QWtCFCfKZcOX6VG-115" value="" style="endArrow=none;html=1;rounded=0;" edge="1" parent="1">
          <mxGeometry width="50" height="50" relative="1" as="geometry">
            <mxPoint x="940" y="735" as="sourcePoint" />
            <mxPoint x="827" y="735" as="targetPoint" />
          </mxGeometry>
        </mxCell>
        <mxCell id="TA72_QWtCFCfKZcOX6VG-116" value="" style="endArrow=none;html=1;rounded=0;" edge="1" parent="1">
          <mxGeometry width="50" height="50" relative="1" as="geometry">
            <mxPoint x="940" y="218" as="sourcePoint" />
            <mxPoint x="937" y="734.5" as="targetPoint" />
          </mxGeometry>
        </mxCell>
        <mxCell id="TA72_QWtCFCfKZcOX6VG-117" style="edgeStyle=orthogonalEdgeStyle;rounded=0;orthogonalLoop=1;jettySize=auto;html=1;endArrow=none;endFill=0;" edge="1" parent="1">
          <mxGeometry relative="1" as="geometry">
            <mxPoint x="940" y="220" as="sourcePoint" />
            <mxPoint x="1050" y="190" as="targetPoint" />
            <Array as="points">
              <mxPoint x="990" y="190" />
            </Array>
          </mxGeometry>
        </mxCell>
        <mxCell id="TA72_QWtCFCfKZcOX6VG-118" value="N" style="text;html=1;align=center;verticalAlign=middle;resizable=0;points=[];autosize=1;strokeColor=none;fillColor=none;" vertex="1" parent="1">
          <mxGeometry x="1025" y="188" width="30" height="30" as="geometry" />
        </mxCell>
        <mxCell id="TA72_QWtCFCfKZcOX6VG-119" value="1" style="text;html=1;align=center;verticalAlign=middle;resizable=0;points=[];autosize=1;strokeColor=none;fillColor=none;" vertex="1" parent="1">
          <mxGeometry x="385" y="400" width="30" height="30" as="geometry" />
        </mxCell>
        <mxCell id="TA72_QWtCFCfKZcOX6VG-120" value="fecha" style="ellipse;whiteSpace=wrap;html=1;align=center;" vertex="1" parent="1">
          <mxGeometry x="1141" y="100" width="100" height="40" as="geometry" />
        </mxCell>
        <mxCell id="TA72_QWtCFCfKZcOX6VG-121" value="" style="endArrow=none;html=1;rounded=0;entryX=0;entryY=1;entryDx=0;entryDy=0;" edge="1" parent="1" target="TA72_QWtCFCfKZcOX6VG-120">
          <mxGeometry width="50" height="50" relative="1" as="geometry">
            <mxPoint x="1130" y="160" as="sourcePoint" />
            <mxPoint x="1140" y="91" as="targetPoint" />
          </mxGeometry>
        </mxCell>
      </root>
    </mxGraphModel>
  </diagram>
</mxfile>
